<?xml version="1.0" encoding="UTF-8"?>
<svg xmlns="http://www.w3.org/2000/svg" xmlns:xlink="http://www.w3.org/1999/xlink" width="426.65pt" height="105.98pt" viewBox="0 0 426.65 105.98" version="1.2">
<defs>
<clipPath id="clip1">
  <path d="M 279 0.0351562 L 310 0.0351562 L 310 43 L 279 43 Z M 279 0.0351562 "/>
</clipPath>
<clipPath id="clip2">
  <path d="M 380 12 L 426.300781 12 L 426.300781 68 L 380 68 Z M 380 12 "/>
</clipPath>
<clipPath id="clip3">
  <path d="M 254 90 L 266 90 L 266 105.925781 L 254 105.925781 Z M 254 90 "/>
</clipPath>
<clipPath id="clip4">
  <path d="M 267 90 L 279 90 L 279 105.925781 L 267 105.925781 Z M 267 90 "/>
</clipPath>
<clipPath id="clip5">
  <path d="M 315 90 L 327 90 L 327 105.925781 L 315 105.925781 Z M 315 90 "/>
</clipPath>
</defs>
<g id="surface1">
<path style=" stroke:none;fill-rule:nonzero;fill:rgb(100%,100%,100%);fill-opacity:1;" d="M 54.730469 12.609375 L 37.074219 12.609375 L 18.089844 36.492188 L 39.511719 67.179688 L 57.371094 67.179688 L 34.953125 36.636719 L 54.730469 12.609375 "/>
<path style=" stroke:none;fill-rule:nonzero;fill:rgb(100%,100%,100%);fill-opacity:1;" d="M 0 67.179688 L 13.773438 67.179688 L 13.773438 12.609375 L 0 12.609375 L 0 67.179688 "/>
<path style=" stroke:none;fill-rule:nonzero;fill:rgb(100%,100%,100%);fill-opacity:1;" d="M 98.351562 51.390625 C 96.191406 53.972656 93.113281 55.230469 88.945312 55.230469 C 84.820312 55.230469 81.71875 53.929688 79.5 51.285156 C 77.296875 48.585938 76.175781 44.773438 76.175781 39.964844 C 76.175781 35.039062 77.261719 31.316406 79.507812 28.5625 C 81.683594 25.871094 84.769531 24.566406 88.945312 24.566406 C 93.15625 24.566406 96.226562 25.8125 98.324219 28.375 C 100.574219 31.128906 101.714844 35.027344 101.714844 39.964844 C 101.714844 44.867188 100.582031 48.714844 98.351562 51.390625 Z M 88.945312 11.667969 C 80.59375 11.667969 73.941406 14.46875 69.207031 19.96875 C 64.691406 25.089844 62.402344 31.816406 62.402344 39.964844 C 62.402344 48.070312 64.691406 54.773438 69.210938 59.894531 C 74.050781 65.355469 80.6875 68.125 88.945312 68.125 C 97.167969 68.125 103.800781 65.386719 108.6875 59.957031 C 113.246094 54.792969 115.558594 48.0625 115.558594 39.964844 C 115.558594 31.746094 113.238281 24.988281 108.679688 19.894531 C 103.832031 14.4375 97.195312 11.667969 88.945312 11.667969 "/>
<path style=" stroke:none;fill-rule:nonzero;fill:rgb(100%,100%,100%);fill-opacity:1;" d="M 223.132812 51.390625 C 220.972656 53.972656 217.894531 55.230469 213.730469 55.230469 C 209.601562 55.230469 206.5 53.929688 204.28125 51.285156 C 202.078125 48.585938 200.960938 44.773438 200.960938 39.964844 C 200.960938 35.039062 202.046875 31.3125 204.292969 28.5625 C 206.464844 25.871094 209.550781 24.566406 213.730469 24.566406 C 217.941406 24.566406 221.007812 25.8125 223.109375 28.371094 C 225.359375 31.128906 226.5 35.027344 226.5 39.964844 C 226.5 44.867188 225.367188 48.714844 223.132812 51.390625 Z M 213.730469 11.667969 C 205.375 11.667969 198.726562 14.46875 193.992188 19.96875 C 189.476562 25.089844 187.183594 31.816406 187.183594 39.964844 C 187.183594 48.070312 189.476562 54.773438 193.992188 59.894531 C 198.832031 65.355469 205.472656 68.125 213.730469 68.125 C 221.949219 68.125 228.582031 65.386719 233.46875 59.957031 C 238.027344 54.789062 240.339844 48.0625 240.339844 39.964844 C 240.339844 31.746094 238.023438 24.988281 233.460938 19.894531 C 228.617188 14.4375 221.976562 11.667969 213.730469 11.667969 "/>
<path style=" stroke:none;fill-rule:nonzero;fill:rgb(100%,100%,100%);fill-opacity:1;" d="M 164.699219 15.902344 C 160.976562 13.054688 156.035156 11.667969 149.59375 11.667969 C 143.839844 11.667969 138.941406 13.011719 135.046875 15.660156 C 130.578125 18.699219 128.3125 22.949219 128.3125 28.300781 C 128.3125 33.625 130.761719 37.914062 135.398438 40.695312 L 135.515625 40.761719 C 137.144531 41.648438 140.511719 42.871094 147.179688 44.992188 C 154.078125 47.089844 155.824219 47.8125 156.226562 48.015625 C 159.058594 49.464844 159.058594 50.890625 159.058594 51.496094 C 159.058594 52.203125 158.867188 52.960938 157.460938 53.753906 C 155.746094 54.71875 153.28125 55.230469 150.335938 55.230469 C 147.097656 55.230469 144.667969 54.683594 143.296875 53.644531 C 141.929688 52.621094 141.015625 50.714844 140.570312 48 L 126.816406 48 L 126.835938 48.269531 C 127.304688 55.335938 129.957031 60.636719 134.75 64.046875 C 138.652344 66.753906 143.898438 68.125 150.335938 68.125 C 157.0625 68.125 162.460938 66.699219 166.410156 63.855469 C 170.628906 60.734375 172.765625 56.4375 172.765625 51.089844 C 172.765625 45.574219 170.085938 41.035156 165.019531 37.960938 C 162.957031 36.710938 158.851562 35.15625 151.660156 32.910156 C 145.730469 31.136719 144.199219 30.359375 143.953125 30.21875 L 143.882812 30.179688 C 142.019531 29.195312 142.019531 28.347656 142.019531 27.894531 C 142.019531 26.476562 142.539062 25.921875 143.382812 25.488281 L 143.480469 25.4375 C 144.296875 24.976562 145.953125 24.429688 149.191406 24.429688 C 152.089844 24.429688 154.210938 24.917969 155.492188 25.878906 L 155.550781 25.921875 C 156.699219 26.738281 157.539062 28.359375 158.054688 30.734375 L 158.082031 30.847656 L 171.773438 30.847656 L 171.675781 29.765625 C 171.121094 23.582031 168.757812 18.910156 164.699219 15.902344 "/>
<path style=" stroke:none;fill-rule:nonzero;fill:rgb(100%,100%,100%);fill-opacity:1;" d="M 247.691406 12.609375 L 267.257812 67.179688 L 283.070312 67.179688 L 262.433594 12.609375 L 247.691406 12.609375 "/>
<g clip-path="url(#clip1)" clip-rule="nonzero">
<path style=" stroke:none;fill-rule:nonzero;fill:rgb(74.578857%,11.042786%,17.58728%);fill-opacity:1;" d="M 279.167969 42.171875 L 293.347656 42.171875 L 309.921875 0.0351562 L 295.179688 0.0351562 L 279.167969 42.171875 "/>
</g>
<path style=" stroke:none;fill-rule:nonzero;fill:rgb(100%,100%,100%);fill-opacity:1;" d="M 330.796875 12.609375 L 351.148438 67.179688 L 365.949219 67.179688 L 344.929688 12.609375 L 330.796875 12.609375 "/>
<path style=" stroke:none;fill-rule:nonzero;fill:rgb(100%,100%,100%);fill-opacity:1;" d="M 318.4375 40.273438 L 308 67.175781 L 322.746094 67.175781 L 327.9375 52.957031 L 338.613281 52.957031 L 333.617188 40.273438 L 318.4375 40.273438 "/>
<g clip-path="url(#clip2)" clip-rule="nonzero">
<path style=" stroke:none;fill-rule:nonzero;fill:rgb(100%,100%,100%);fill-opacity:1;" d="M 412.527344 12.609375 L 412.527344 44.394531 L 392.550781 12.609375 L 380.226562 12.609375 L 380.226562 67.179688 L 394 67.179688 L 394 40.226562 L 412.527344 67.191406 L 412.527344 67.386719 L 426.300781 67.386719 L 426.300781 12.609375 L 412.527344 12.609375 "/>
</g>
<path style=" stroke:none;fill-rule:nonzero;fill:rgb(100%,100%,100%);fill-opacity:1;" d="M 45.019531 86.613281 L 55.371094 86.613281 L 55.371094 89.242188 L 48.152344 89.242188 L 48.152344 92.878906 L 54.914062 92.878906 L 54.914062 95.503906 L 48.152344 95.503906 L 48.152344 101.445312 L 45.019531 101.445312 L 45.019531 86.613281 "/>
<path style=" stroke:none;fill-rule:nonzero;fill:rgb(100%,100%,100%);fill-opacity:1;" d="M 58.585938 90.3125 L 61.667969 90.3125 L 61.667969 101.445312 L 58.585938 101.445312 Z M 58.585938 85.742188 L 61.667969 85.742188 L 61.667969 88.492188 L 58.585938 88.492188 L 58.585938 85.742188 "/>
<path style=" stroke:none;fill-rule:nonzero;fill:rgb(100%,100%,100%);fill-opacity:1;" d="M 65.746094 93.117188 C 65.746094 92.167969 65.746094 91.132812 65.722656 90.3125 L 68.710938 90.3125 C 68.773438 90.597656 68.8125 91.371094 68.828125 91.730469 C 69.207031 91.03125 70.109375 90.054688 72.058594 90.054688 C 74.296875 90.054688 75.75 91.566406 75.75 94.363281 L 75.75 101.445312 L 72.667969 101.445312 L 72.667969 94.703125 C 72.667969 93.453125 72.25 92.546875 70.890625 92.546875 C 69.578125 92.546875 68.828125 93.273438 68.828125 95.242188 L 68.828125 101.445312 L 65.746094 101.445312 L 65.746094 93.117188 "/>
<path style=" stroke:none;fill-rule:nonzero;fill:rgb(100%,100%,100%);fill-opacity:1;" d="M 85.871094 96.378906 C 85.613281 96.378906 85.019531 96.378906 84.613281 96.378906 C 82.757812 96.378906 82.066406 96.945312 82.066406 98.015625 C 82.066406 98.824219 82.5625 99.503906 83.671875 99.503906 C 85.628906 99.503906 85.871094 98.140625 85.871094 96.671875 Z M 88.875 98.570312 C 88.875 99.628906 88.960938 101.179688 89.023438 101.445312 L 86.078125 101.445312 C 85.992188 101.226562 85.929688 100.640625 85.925781 100.359375 C 85.519531 100.984375 84.761719 101.703125 82.792969 101.703125 C 80.109375 101.703125 78.976562 99.941406 78.976562 98.210938 C 78.976562 95.675781 81.011719 94.503906 84.277344 94.503906 C 84.820312 94.503906 85.492188 94.503906 85.867188 94.503906 L 85.867188 93.824219 C 85.867188 93.035156 85.582031 92.253906 84.152344 92.253906 C 82.851562 92.253906 82.566406 92.808594 82.425781 93.613281 L 79.492188 93.613281 C 79.660156 91.636719 80.882812 90.035156 84.269531 90.054688 C 87.25 90.070312 88.875 91.238281 88.875 93.886719 L 88.875 98.570312 "/>
<path style=" stroke:none;fill-rule:nonzero;fill:rgb(100%,100%,100%);fill-opacity:1;" d="M 92.972656 93.117188 C 92.972656 92.167969 92.972656 91.132812 92.949219 90.3125 L 95.9375 90.3125 C 96 90.597656 96.039062 91.371094 96.054688 91.730469 C 96.433594 91.03125 97.335938 90.054688 99.285156 90.054688 C 101.523438 90.054688 102.976562 91.566406 102.976562 94.363281 L 102.976562 101.445312 L 99.890625 101.445312 L 99.890625 94.703125 C 99.890625 93.453125 99.476562 92.546875 98.113281 92.546875 C 96.804688 92.546875 96.054688 93.273438 96.054688 95.242188 L 96.054688 101.445312 L 92.972656 101.445312 L 92.972656 93.117188 "/>
<path style=" stroke:none;fill-rule:nonzero;fill:rgb(100%,100%,100%);fill-opacity:1;" d="M 116.636719 97.847656 C 116.25 99.703125 114.945312 101.703125 111.628906 101.703125 C 108.164062 101.703125 106.378906 99.304688 106.378906 95.960938 C 106.378906 92.671875 108.386719 90.054688 111.777344 90.054688 C 115.53125 90.054688 116.574219 92.746094 116.636719 94.007812 L 113.625 94.007812 C 113.433594 93.097656 112.921875 92.464844 111.71875 92.464844 C 110.308594 92.464844 109.507812 93.699219 109.507812 95.859375 C 109.507812 98.230469 110.355469 99.3125 111.703125 99.3125 C 112.761719 99.3125 113.332031 98.683594 113.605469 97.847656 L 116.636719 97.847656 "/>
<path style=" stroke:none;fill-rule:nonzero;fill:rgb(100%,100%,100%);fill-opacity:1;" d="M 119.910156 90.3125 L 122.992188 90.3125 L 122.992188 101.445312 L 119.910156 101.445312 Z M 119.910156 85.742188 L 122.992188 85.742188 L 122.992188 88.492188 L 119.910156 88.492188 L 119.910156 85.742188 "/>
<path style=" stroke:none;fill-rule:nonzero;fill:rgb(100%,100%,100%);fill-opacity:1;" d="M 133.199219 96.378906 C 132.941406 96.378906 132.347656 96.378906 131.941406 96.378906 C 130.082031 96.378906 129.394531 96.945312 129.394531 98.015625 C 129.394531 98.824219 129.890625 99.503906 130.996094 99.503906 C 132.957031 99.503906 133.199219 98.140625 133.199219 96.671875 Z M 136.203125 98.570312 C 136.203125 99.628906 136.289062 101.179688 136.351562 101.445312 L 133.40625 101.445312 C 133.320312 101.226562 133.257812 100.640625 133.25 100.359375 C 132.847656 100.984375 132.089844 101.703125 130.121094 101.703125 C 127.4375 101.703125 126.304688 99.941406 126.304688 98.210938 C 126.304688 95.675781 128.339844 94.503906 131.605469 94.503906 C 132.148438 94.503906 132.820312 94.503906 133.195312 94.503906 L 133.195312 93.824219 C 133.195312 93.035156 132.910156 92.253906 131.480469 92.253906 C 130.179688 92.253906 129.894531 92.808594 129.75 93.613281 L 126.820312 93.613281 C 126.988281 91.636719 128.210938 90.035156 131.597656 90.054688 C 134.578125 90.070312 136.203125 91.238281 136.203125 93.886719 L 136.203125 98.570312 "/>
<path style=" stroke:none;fill-rule:nonzero;fill:rgb(100%,100%,100%);fill-opacity:1;" d="M 140.28125 101.445312 L 140.28125 85.742188 L 143.363281 85.742188 L 143.363281 101.445312 L 140.28125 101.445312 "/>
<path style=" stroke:none;fill-rule:nonzero;fill:rgb(100%,100%,100%);fill-opacity:1;" d="M 157.269531 89.242188 L 152.765625 89.242188 L 152.765625 86.613281 L 164.96875 86.613281 L 164.96875 89.242188 L 160.480469 89.242188 L 160.480469 101.445312 L 157.269531 101.445312 L 157.269531 89.242188 "/>
<path style=" stroke:none;fill-rule:nonzero;fill:rgb(100%,100%,100%);fill-opacity:1;" d="M 172.707031 94.644531 C 172.683594 93.347656 172.167969 92.257812 170.664062 92.257812 C 169.1875 92.257812 168.589844 93.277344 168.46875 94.644531 Z M 168.40625 96.539062 C 168.40625 97.929688 169.105469 99.292969 170.640625 99.292969 C 171.921875 99.292969 172.289062 98.777344 172.582031 98.101562 L 175.667969 98.101562 C 175.273438 99.464844 174.058594 101.703125 170.558594 101.703125 C 166.890625 101.703125 165.300781 98.960938 165.300781 96.039062 C 165.300781 92.546875 167.09375 90.054688 170.667969 90.054688 C 174.492188 90.054688 175.792969 92.820312 175.792969 95.597656 C 175.792969 95.976562 175.792969 96.21875 175.753906 96.539062 L 168.40625 96.539062 "/>
<path style=" stroke:none;fill-rule:nonzero;fill:rgb(100%,100%,100%);fill-opacity:1;" d="M 189.007812 97.847656 C 188.625 99.703125 187.320312 101.703125 184 101.703125 C 180.535156 101.703125 178.753906 99.304688 178.753906 95.960938 C 178.753906 92.671875 180.757812 90.054688 184.148438 90.054688 C 187.902344 90.054688 188.945312 92.746094 189.007812 94.007812 L 186 94.007812 C 185.808594 93.097656 185.292969 92.464844 184.089844 92.464844 C 182.679688 92.464844 181.882812 93.699219 181.882812 95.859375 C 181.882812 98.230469 182.726562 99.3125 184.078125 99.3125 C 185.136719 99.3125 185.703125 98.683594 185.980469 97.847656 L 189.007812 97.847656 "/>
<path style=" stroke:none;fill-rule:nonzero;fill:rgb(100%,100%,100%);fill-opacity:1;" d="M 195.261719 85.742188 L 195.261719 91.625 C 195.75 90.90625 196.652344 90.054688 198.449219 90.054688 C 200.527344 90.054688 202.179688 91.28125 202.179688 94.304688 L 202.179688 101.445312 L 199.117188 101.445312 L 199.117188 94.761719 C 199.117188 93.316406 198.601562 92.546875 197.308594 92.546875 C 195.597656 92.546875 195.261719 93.820312 195.261719 95.539062 L 195.261719 101.445312 L 192.175781 101.445312 L 192.175781 85.742188 L 195.261719 85.742188 "/>
<path style=" stroke:none;fill-rule:nonzero;fill:rgb(100%,100%,100%);fill-opacity:1;" d="M 206.253906 93.117188 C 206.253906 92.167969 206.253906 91.132812 206.234375 90.3125 L 209.21875 90.3125 C 209.28125 90.597656 209.324219 91.371094 209.339844 91.730469 C 209.71875 91.03125 210.621094 90.054688 212.570312 90.054688 C 214.804688 90.054688 216.257812 91.566406 216.257812 94.363281 L 216.257812 101.445312 L 213.175781 101.445312 L 213.175781 94.703125 C 213.175781 93.453125 212.757812 92.546875 211.398438 92.546875 C 210.089844 92.546875 209.339844 93.273438 209.339844 95.242188 L 209.339844 101.445312 L 206.253906 101.445312 L 206.253906 93.117188 "/>
<path style=" stroke:none;fill-rule:nonzero;fill:rgb(100%,100%,100%);fill-opacity:1;" d="M 222.753906 95.878906 C 222.753906 98.023438 223.675781 99.292969 225.164062 99.292969 C 226.671875 99.292969 227.511719 98.019531 227.511719 95.898438 C 227.511719 93.566406 226.652344 92.464844 225.121094 92.464844 C 223.691406 92.464844 222.753906 93.523438 222.753906 95.878906 Z M 230.640625 95.855469 C 230.640625 99.226562 228.621094 101.703125 225.09375 101.703125 C 221.640625 101.703125 219.625 99.242188 219.625 95.917969 C 219.625 92.480469 221.703125 90.054688 225.238281 90.054688 C 228.519531 90.054688 230.640625 92.367188 230.640625 95.855469 "/>
<path style=" stroke:none;fill-rule:nonzero;fill:rgb(100%,100%,100%);fill-opacity:1;" d="M 234.042969 101.445312 L 234.042969 85.742188 L 237.125 85.742188 L 237.125 101.445312 L 234.042969 101.445312 "/>
<path style=" stroke:none;fill-rule:nonzero;fill:rgb(100%,100%,100%);fill-opacity:1;" d="M 243.664062 95.878906 C 243.664062 98.023438 244.585938 99.292969 246.070312 99.292969 C 247.578125 99.292969 248.417969 98.019531 248.417969 95.898438 C 248.417969 93.566406 247.5625 92.464844 246.027344 92.464844 C 244.597656 92.464844 243.664062 93.523438 243.664062 95.878906 Z M 251.546875 95.855469 C 251.546875 99.226562 249.53125 101.703125 246.003906 101.703125 C 242.550781 101.703125 240.535156 99.242188 240.535156 95.917969 C 240.535156 92.480469 242.613281 90.054688 246.148438 90.054688 C 249.425781 90.054688 251.546875 92.367188 251.546875 95.855469 "/>
<g clip-path="url(#clip3)" clip-rule="nonzero">
<path style=" stroke:none;fill-rule:nonzero;fill:rgb(100%,100%,100%);fill-opacity:1;" d="M 257.570312 95.777344 C 257.570312 97.695312 258.527344 98.824219 259.894531 98.824219 C 261.75 98.824219 262.242188 97.550781 262.242188 95.683594 C 262.242188 93.808594 261.914062 92.523438 259.957031 92.523438 C 258.621094 92.523438 257.570312 93.554688 257.570312 95.777344 Z M 265.167969 100.089844 C 265.167969 103.664062 263.847656 105.925781 259.632812 105.925781 C 255.566406 105.925781 254.761719 103.65625 254.65625 102.398438 L 257.796875 102.398438 C 258.015625 103.164062 258.578125 103.683594 259.769531 103.683594 C 261.769531 103.683594 262.148438 102.464844 262.148438 100.28125 L 262.148438 99.75 C 261.566406 100.710938 260.644531 101.3125 259.007812 101.3125 C 256.074219 101.3125 254.40625 98.910156 254.40625 95.917969 C 254.40625 92.433594 256.488281 90.054688 259.273438 90.054688 C 261.183594 90.054688 261.976562 90.953125 262.148438 91.472656 C 262.167969 91.171875 262.246094 90.492188 262.269531 90.3125 L 265.191406 90.3125 C 265.171875 91.304688 265.167969 92.4375 265.167969 93.507812 L 265.167969 100.089844 "/>
</g>
<g clip-path="url(#clip4)" clip-rule="nonzero">
<path style=" stroke:none;fill-rule:nonzero;fill:rgb(100%,100%,100%);fill-opacity:1;" d="M 271.238281 90.3125 C 272.390625 94.152344 273.394531 97.582031 273.570312 98.609375 L 273.589844 98.609375 C 273.832031 97.488281 274.484375 94.992188 275.8125 90.3125 L 278.882812 90.3125 L 275.140625 101.765625 C 274.074219 104.96875 273.1875 105.925781 270.511719 105.925781 C 270.238281 105.925781 269.601562 105.90625 269.070312 105.84375 L 269.070312 103.367188 C 269.277344 103.390625 269.617188 103.410156 269.867188 103.410156 C 271 103.410156 271.570312 103.019531 271.988281 101.785156 L 267.933594 90.3125 L 271.238281 90.3125 "/>
</g>
<path style=" stroke:none;fill-rule:nonzero;fill:rgb(100%,100%,100%);fill-opacity:1;" d="M 298.757812 95.050781 L 291.664062 95.050781 L 291.664062 98.816406 L 299.488281 98.816406 L 299.109375 101.445312 L 288.550781 101.445312 L 288.550781 86.613281 L 299.066406 86.613281 L 299.066406 89.242188 L 291.664062 89.242188 L 291.664062 92.421875 L 298.757812 92.421875 L 298.757812 95.050781 "/>
<path style=" stroke:none;fill-rule:nonzero;fill:rgb(100%,100%,100%);fill-opacity:1;" d="M 305.34375 90.3125 C 306.503906 92.40625 306.976562 93.230469 307.3125 93.800781 L 307.332031 93.800781 C 307.71875 93.125 308.394531 91.898438 309.300781 90.3125 L 312.722656 90.3125 L 309.113281 95.613281 L 312.710938 101.445312 L 309.222656 101.445312 C 308.226562 99.5625 307.597656 98.34375 307.273438 97.703125 L 307.25 97.703125 C 306.957031 98.289062 306.195312 99.734375 305.285156 101.445312 L 301.914062 101.445312 L 305.363281 96.019531 L 301.933594 90.3125 L 305.34375 90.3125 "/>
<g clip-path="url(#clip5)" clip-rule="nonzero">
<path style=" stroke:none;fill-rule:nonzero;fill:rgb(100%,100%,100%);fill-opacity:1;" d="M 322.929688 95.71875 C 322.929688 93.675781 322.105469 92.523438 320.636719 92.523438 C 318.886719 92.523438 318.265625 93.648438 318.265625 95.890625 C 318.265625 98.015625 318.839844 99.253906 320.507812 99.253906 C 322.136719 99.253906 322.929688 97.984375 322.929688 95.71875 Z M 318.386719 100.460938 L 318.386719 105.710938 L 315.324219 105.710938 L 315.324219 92.996094 C 315.324219 92.09375 315.324219 91.203125 315.300781 90.3125 L 318.289062 90.3125 C 318.332031 90.605469 318.386719 91.289062 318.386719 91.699219 C 318.863281 90.878906 319.859375 90.054688 321.625 90.054688 C 324.125 90.054688 326.058594 92.144531 326.058594 95.597656 C 326.058594 99.527344 323.898438 101.703125 321.203125 101.703125 C 319.628906 101.703125 318.8125 101.113281 318.386719 100.460938 "/>
</g>
<path style=" stroke:none;fill-rule:nonzero;fill:rgb(100%,100%,100%);fill-opacity:1;" d="M 336.351562 94.644531 C 336.328125 93.347656 335.808594 92.257812 334.308594 92.257812 C 332.832031 92.257812 332.238281 93.277344 332.113281 94.644531 Z M 332.050781 96.539062 C 332.050781 97.929688 332.75 99.292969 334.285156 99.292969 C 335.566406 99.292969 335.933594 98.777344 336.226562 98.101562 L 339.3125 98.101562 C 338.917969 99.464844 337.703125 101.703125 334.203125 101.703125 C 330.535156 101.703125 328.945312 98.960938 328.945312 96.039062 C 328.945312 92.546875 330.738281 90.054688 334.3125 90.054688 C 338.136719 90.054688 339.4375 92.820312 339.4375 95.597656 C 339.4375 95.976562 339.4375 96.21875 339.398438 96.539062 L 332.050781 96.539062 "/>
<path style=" stroke:none;fill-rule:nonzero;fill:rgb(100%,100%,100%);fill-opacity:1;" d="M 342.882812 93.332031 C 342.882812 92.226562 342.882812 91.242188 342.863281 90.3125 L 345.886719 90.3125 C 345.925781 90.5625 345.96875 91.667969 345.96875 92.265625 C 346.457031 90.992188 347.644531 90.0625 349.539062 90.054688 L 349.539062 92.996094 C 347.300781 92.9375 345.96875 93.539062 345.96875 96.59375 L 345.96875 101.445312 L 342.882812 101.445312 L 342.882812 93.332031 "/>
<path style=" stroke:none;fill-rule:nonzero;fill:rgb(100%,100%,100%);fill-opacity:1;" d="M 352.003906 90.3125 L 353.71875 90.3125 L 353.71875 87.296875 L 356.800781 87.296875 L 356.800781 90.3125 L 358.984375 90.3125 L 358.984375 92.628906 L 356.800781 92.628906 L 356.800781 98.125 C 356.800781 98.96875 357.0625 99.296875 357.980469 99.296875 C 358.152344 99.296875 358.453125 99.296875 358.683594 99.265625 L 358.683594 101.386719 C 358.070312 101.59375 357.230469 101.597656 356.609375 101.597656 C 354.4375 101.597656 353.71875 100.433594 353.71875 98.488281 L 353.71875 92.628906 L 352.003906 92.628906 L 352.003906 90.3125 "/>
</g>
</svg>
